<svg width="166" height="40" viewBox="0 0 166 40" fill="none" xmlns="http://www.w3.org/2000/svg">
<path fill-rule="evenodd" clip-rule="evenodd" d="M20 0C25.523 0 30.5235 2.23907 34.1422 5.85777C37.762 9.47759 40 14.477 40 20C40 25.523 37.7609 30.5235 34.1422 34.1422C32.5862 35.6982 30.7741 36.9992 28.7754 37.9766V37.9879H28.7529C26.1094 39.2765 23.139 40 20 40C14.477 40 9.47646 37.7609 5.85777 34.1422C2.23907 30.5235 0 25.523 0 20C0 14.477 2.23907 9.47646 5.85777 5.85777C9.47759 2.23907 14.477 0 20 0ZM21.0224 27.8901L20.2584 16.9891C21.0313 17.5643 21.7335 18.1631 22.366 18.7889C22.393 18.6136 22.3829 18.4339 22.3368 18.2631C22.5638 18.453 22.6705 18.7496 22.6154 19.0406C23.1525 19.5933 23.6367 20.1663 24.067 20.7572C24.1523 20.537 24.1782 20.2988 24.1434 20.0652C24.3748 20.3573 24.4366 20.7482 24.3063 21.0965C24.9163 21.9885 25.4073 22.9233 25.778 23.9007C27.3756 16.5903 20.9549 16.8554 20.6741 16.733C21.4976 16.6262 22.2975 16.57 23.0716 16.5656C22.966 16.4229 22.8323 16.3027 22.6784 16.2139C22.9727 16.1869 23.2581 16.3218 23.4243 16.5667C24.195 16.5779 24.9421 16.6397 25.6645 16.7543C25.569 16.5386 25.4196 16.351 25.2297 16.2105C25.5994 16.2532 25.9196 16.4858 26.0746 16.8251C27.1374 17.0239 28.1452 17.3385 29.0979 17.7677C25.0646 11.4774 20.6022 16.1634 20.3741 16.2532C20.7954 15.6331 21.2369 15.0579 21.6976 14.5287C21.5324 14.5141 21.3661 14.5343 21.2089 14.5871C21.3718 14.3647 21.6436 14.2478 21.9178 14.2815C22.402 13.7479 22.9064 13.2626 23.4322 12.8266C23.2221 12.7604 22.9985 12.7503 22.7828 12.7963C23.0412 12.5638 23.4019 12.4829 23.7344 12.584C24.5298 11.9627 25.3724 11.4493 26.2622 11.0459C22.2121 10.4258 20.1281 12.1301 20.0079 16.1577C19.9202 12.1402 17.8508 10.4224 13.8007 11.0044C14.686 11.4156 15.5241 11.9369 16.3139 12.566C16.6476 12.4683 17.0082 12.5525 17.2644 12.7873C17.0498 12.739 16.8251 12.748 16.615 12.812C17.1374 13.2524 17.6373 13.7423 18.1159 14.2804C18.3901 14.249 18.6608 14.368 18.8215 14.5927C18.6642 14.5388 18.4979 14.5163 18.3328 14.5298C18.7889 15.0635 19.2237 15.6421 19.6394 16.2667C19.4124 16.1746 14.9938 11.4482 10.9021 17.7003C11.8593 17.2801 12.8705 16.9756 13.9344 16.7858C14.0917 16.4487 14.4152 16.2184 14.7849 16.1791C14.5939 16.3173 14.4422 16.5038 14.3445 16.7183C15.068 16.6105 15.8151 16.5554 16.5858 16.5521C16.7543 16.3094 17.0408 16.1768 17.3351 16.206C17.1801 16.2937 17.0453 16.4116 16.9397 16.5532C17.7149 16.5656 18.5136 16.6285 19.336 16.7431C19.054 16.8633 12.6357 16.5386 14.1658 23.8636C14.5456 22.8896 15.0455 21.9593 15.6634 21.0729C15.5365 20.7235 15.6027 20.3325 15.8364 20.0427C15.7993 20.2752 15.8241 20.5145 15.9061 20.7347C16.3409 20.1472 16.8307 19.5798 17.3733 19.0316C17.3205 18.7406 17.4306 18.444 17.6587 18.2575C17.6115 18.4283 17.5991 18.608 17.625 18.7833C18.2732 18.1553 18.9934 17.5531 19.7865 16.9767L18.7058 27.1823C15.3983 26.1589 12.1009 25.1668 8.71363 25.0882V18.1384C8.71363 15.0354 9.98315 12.2132 12.0301 10.1674C14.0759 8.12156 16.8981 6.85092 20.0011 6.85092C23.1041 6.85092 25.9263 8.12156 27.9721 10.1674C30.018 12.2132 31.2886 15.0354 31.2886 18.1384V29.2922C27.7969 29.6989 24.3961 28.8934 21.0224 27.8901ZM7.05876 25.1264V18.1384C7.05876 14.5781 8.51477 11.3425 10.8595 8.99786C13.2053 6.65206 16.4408 5.19717 20 5.19717C23.5603 5.19717 26.7959 6.65318 29.1405 8.99786C31.4863 11.3437 32.9412 14.5793 32.9412 18.1384V29.0069C34.1827 28.7204 35.4353 28.2642 36.7049 27.5935C37.7587 25.2792 38.3451 22.7087 38.3451 20C38.3451 14.9343 36.2914 10.3472 32.9716 7.0273C29.6517 3.70745 25.0657 1.65375 19.9989 1.65375C14.9332 1.65375 10.346 3.70745 7.02618 7.0273C3.70633 10.3472 1.65262 14.9332 1.65262 20C1.65262 22.1222 2.01326 24.1613 2.6761 26.0577C4.16245 25.5162 5.61959 25.2275 7.05876 25.1264ZM35.3814 30.0034C29.4495 32.2346 23.9647 30.537 18.5159 28.8507C13.4715 27.2891 8.45972 25.7376 3.29514 27.5924C3.55016 28.153 3.83328 28.699 4.14111 29.2271C8.72149 27.6946 13.2524 29.1091 17.6598 30.4853C18.1182 30.6291 18.5844 30.7741 18.6766 30.8022C20.082 31.2358 21.4875 31.6549 22.8918 31.9987C24.2905 32.3413 25.7027 32.6143 27.1385 32.7604C28.2991 32.8783 29.4293 32.9075 30.5348 32.8457C31.5324 32.7896 32.5121 32.6581 33.4749 32.448C34.1771 31.6908 34.8152 30.8718 35.3814 30.0034ZM31.3122 34.4456C31.0853 34.4658 30.8561 34.4826 30.6269 34.495C29.4405 34.5613 28.226 34.5298 26.9779 34.404C25.4567 34.249 23.9715 33.9625 22.5053 33.6041C21.0448 33.2468 19.6158 32.821 18.1923 32.3818C17.607 32.2009 17.3913 32.1346 17.1689 32.0649C13.1536 30.8111 9.0282 29.5225 5.07022 30.6651C5.46231 31.2122 5.88248 31.738 6.33075 32.238C9.68093 31.5841 13.2693 32.7278 16.4206 33.7322C16.7835 33.8479 17.1396 33.9614 17.6542 34.1198C19.1742 34.5882 20.6853 35.0343 22.2009 35.4016C23.7074 35.7668 25.2297 36.0555 26.7869 36.2139C27.1149 36.2476 27.4542 36.2746 27.8081 36.297C28.0058 36.3094 28.1946 36.3195 28.3766 36.3274C29.4169 35.7915 30.3988 35.1601 31.3122 34.4456ZM25.0286 37.6486C23.9423 37.4812 22.8738 37.2599 21.8133 37.0037C20.246 36.6251 18.7091 36.1701 17.17 35.696C16.8768 35.6061 16.4049 35.4556 15.9229 35.3017C13.3479 34.4815 10.4629 33.5614 7.81373 33.7153C11.0538 36.5959 15.3219 38.3474 20 38.3474C21.7436 38.3463 23.4311 38.1025 25.0286 37.6486Z" fill="#E49951"/>
<path d="M47 31H52.7564L57.6804 22.0047L54.7931 16.7657L47 31Z" fill="white"/>
<path d="M60.2729 9.56047L60.0606 9.08082H58.9583L58.7368 9.56312L56.8587 12.9922L56.628 13.4148L56.6188 13.4321L59.5062 18.671L59.5901 18.8247L66.2547 31H72.011L60.2729 9.56047Z" fill="white"/>
<path d="M154.263 9.56047L154.05 9.08082H152.947L152.726 9.56312L150.848 12.9922L150.617 13.4148L150.608 13.4321L153.495 18.671L153.579 18.8247L159.999 30.5508L160.244 31H166L154.263 9.56047Z" fill="white"/>
<path d="M140.989 31H146.745L151.669 22.0047L148.782 16.7657L140.989 31Z" fill="white"/>
<path d="M133.779 24.0597C132.585 25.5252 130.843 26.3599 128.96 26.3599C127.973 26.3599 127.004 26.1241 126.13 25.6749V20.8135H121.542V28.04L121.837 28.2997C122.764 29.1199 123.814 29.7664 124.952 30.2249C126.23 30.7377 127.577 30.9987 128.96 30.9987C131.18 30.9987 133.314 30.3256 135.13 29.0496C136.381 28.1738 137.458 27.0145 138.244 25.6987L138.369 25.4907V9.0795H133.78V24.0597H133.779Z" fill="white"/>
<path d="M74.8604 30.9987H79.4503V23.6106L74.8604 18.9798V30.9987Z" fill="white"/>
<path d="M84.6588 17.7515L76.0019 9H74.8604V14.4086L84.6575 24.3115L89.7296 19.1878V31H94.3195V9H93.3156L84.6588 17.7515Z" fill="white"/>
<path d="M107.832 9.23187C101.896 9.23187 97.0666 14.1144 97.0666 20.1153C97.0666 26.1161 101.896 30.9987 107.832 30.9987C113.768 30.9987 118.598 26.1161 118.598 20.1153C118.598 14.1144 113.768 9.23187 107.832 9.23187ZM107.832 26.4566C104.373 26.4566 101.56 23.6119 101.56 20.1153C101.56 16.6186 104.373 13.7739 107.832 13.7739C111.291 13.7739 114.105 16.6186 114.105 20.1153C114.104 23.6119 111.291 26.4566 107.832 26.4566Z" fill="white"/>
</svg>
