<svg xmlns="http://www.w3.org/2000/svg" width="250" height="55" viewBox="0 0 250 55" fill="none"><g clip-path="url(#clip0_142_895)"><path d="M26.6253 55.2169C41.3069 55.2169 53.2087 42.8465 53.2087 27.587C53.2087 12.3274 41.3069 -0.0429688 26.6253 -0.0429688C11.9438 -0.0429688 0.0419922 12.3274 0.0419922 27.587C0.0419922 42.8465 11.9438 55.2169 26.6253 55.2169Z" fill="#E0DFD8"></path><path d="M248.625 36.8975C247.833 36.8975 247.208 37.5471 247.208 38.37C247.208 39.1928 247.833 39.8424 248.625 39.8424C249.417 39.8424 250.042 39.1928 250.042 38.37C250.042 37.5471 249.375 36.8975 248.625 36.8975ZM248.625 39.5826C247.958 39.5826 247.458 39.0196 247.458 38.37C247.458 37.6771 248 37.1574 248.625 37.1574C249.292 37.1574 249.792 37.7204 249.792 38.37C249.792 39.0196 249.292 39.5826 248.625 39.5826ZM249.083 38.1101C249.083 37.8503 248.917 37.6771 248.625 37.6771H248.167V39.0196H248.375V38.5432H248.625L248.875 39.0196H249.125L248.875 38.4999C249 38.4133 249.083 38.2834 249.083 38.1101ZM248.625 38.3267H248.417V37.8936H248.625C248.792 37.8936 248.875 37.9802 248.875 38.1101C248.875 38.24 248.75 38.3267 248.625 38.3267ZM79.2917 22.1298V18.5786H74.0833V39.5826H79.2917V26.9802C79.2917 24.6849 80.7083 23.5589 82.875 23.5589H85.7083V18.5353H83.2917C81.4167 18.5786 79.75 19.618 79.2917 22.1298ZM90.625 10.2637C88.8333 10.2637 87.4583 11.7361 87.4583 13.5983C87.4583 15.4172 88.8333 16.8897 90.625 16.8897C92.4167 16.8897 93.7917 15.4172 93.7917 13.5983C93.7917 11.7361 92.4167 10.2637 90.625 10.2637ZM88.0417 39.6259H93.25V18.6219H88.0417V39.6259ZM118 29.1023C118 35.1219 113.333 39.9723 107.542 39.9723C105.208 39.9723 103.083 39.1928 101.417 37.8503V45.8188H96.2083V18.6219H101.417V20.3975C103.125 19.055 105.208 18.2755 107.542 18.2755C113.333 18.2322 118 23.0826 118 29.1023ZM112.75 29.1023C112.75 25.8542 110.208 23.2125 107.083 23.2125C103.958 23.2125 101.417 25.8542 101.417 29.1023C101.417 32.3503 103.958 34.992 107.083 34.992C110.208 34.992 112.75 32.3503 112.75 29.1023ZM208.375 27.24L205.333 26.3739C203.333 25.8542 202.542 25.2046 202.542 24.1219C202.542 23.0393 203.625 22.303 205.208 22.303C206.708 22.303 207.875 23.2991 207.875 24.5983V24.7282H212.667V24.5983C212.667 20.7873 209.667 18.2322 205.208 18.2322C200.792 18.2322 197.583 20.7873 197.583 24.3385C197.583 27.0668 199.333 29.1456 202.375 30.0117L205.292 30.8345C207.5 31.4841 208.333 32.1771 208.333 33.433C208.333 34.7755 207.167 35.6416 205.375 35.6416C203.542 35.6416 202.292 34.429 202.292 32.6534V32.5235H197.208V32.6534C197.208 36.9841 200.542 39.9723 205.333 39.9723C209.958 39.9723 213.292 37.0275 213.292 32.9566C213.292 30.9645 212.417 28.366 208.375 27.24ZM136.458 18.5786H141.667V39.5826H136.458V37.807C134.75 39.1495 132.667 39.929 130.333 39.929C124.542 39.929 119.875 35.0786 119.875 29.0589C119.875 23.0393 124.542 18.1889 130.333 18.1889C132.667 18.1889 134.792 18.9684 136.458 20.3109V18.5786ZM136.458 29.1023C136.458 25.8542 133.917 23.2125 130.792 23.2125C127.667 23.2125 125.125 25.8542 125.125 29.1023C125.125 32.3503 127.667 34.992 130.792 34.992C133.917 34.992 136.458 32.3503 136.458 29.1023ZM160.417 11.1298H165.625V39.6259H160.417V37.8503C158.708 39.1928 156.625 39.9723 154.292 39.9723C148.5 39.9723 143.833 35.1219 143.833 29.1023C143.833 23.0826 148.5 18.2322 154.292 18.2322C156.625 18.2322 158.75 19.0117 160.417 20.3542V11.1298ZM160.417 29.1023C160.417 25.8542 157.875 23.2125 154.75 23.2125C151.625 23.2125 149.083 25.8542 149.083 29.1023C149.083 32.3503 151.625 34.992 154.75 34.992C157.875 34.992 160.417 32.3503 160.417 29.1023ZM189.75 39.6259H194.958V18.6219H189.75V39.6259ZM192.333 10.2637C190.542 10.2637 189.167 11.7361 189.167 13.5983C189.167 15.4172 190.542 16.8897 192.333 16.8897C194.125 16.8897 195.5 15.4172 195.5 13.5983C195.5 11.7361 194.125 10.2637 192.333 10.2637ZM235.75 29.1023C235.75 35.1219 231.083 39.9723 225.292 39.9723C219.5 39.9723 214.833 35.1219 214.833 29.1023C214.833 23.0826 219.5 18.2322 225.292 18.2322C231.083 18.2322 235.75 23.0826 235.75 29.1023ZM231 29.1023C231 25.8542 228.458 23.2125 225.333 23.2125C222.208 23.2125 219.667 25.8542 219.667 29.1023C219.667 32.3503 222.208 34.992 225.333 34.992C228.458 34.992 231 32.3503 231 29.1023ZM76.625 11.1298H56.6667V15.9369H64.0417V39.6259H69.2083V15.9369H76.5833L76.625 11.1298ZM177.5 33.866L172.875 18.6219H167.417L174.333 39.6259H180.583L187.542 18.6219H182.083L177.5 33.866ZM243.375 22.1298V18.5786H238.167V39.5826H243.375V26.9802C243.375 24.6849 244.792 23.5589 246.958 23.5589H249.792V18.5353H247.375C245.5 18.5786 243.833 19.618 243.375 22.1298ZM43.0417 22.2164L46.25 18.5786H39.125C35.5833 16.0668 31.25 14.5944 26.625 14.5944C21.9583 14.5944 17.7083 16.0668 14.125 18.5786H7L10.2083 22.2164C8.25 24.0786 7 26.7637 7 29.7519C7 35.3818 11.375 39.929 16.7917 39.929C19.375 39.929 21.7083 38.8897 23.4583 37.2007L26.5833 40.7519L29.7083 37.2007C31.4583 38.8897 33.7917 39.929 36.375 39.929C41.7917 39.929 46.2083 35.3818 46.2083 29.7519C46.25 26.7637 45 24.0786 43.0417 22.2164ZM16.7917 36.6377C13.125 36.6377 10.1667 33.5629 10.1667 29.7519C10.1667 25.9408 13.125 22.866 16.7917 22.866C20.4583 22.866 23.4167 25.9408 23.4167 29.7519C23.4583 33.5629 20.4583 36.6377 16.7917 36.6377ZM26.625 29.5353C26.625 24.9881 23.4583 21.0904 19.25 19.4448C21.5 18.4487 24 17.929 26.625 17.929C29.25 17.929 31.7083 18.492 34 19.4448C29.7917 21.1337 26.625 25.0314 26.625 29.5353ZM36.4167 36.6377C32.75 36.6377 29.7917 33.5629 29.7917 29.7519C29.7917 25.9408 32.75 22.866 36.4167 22.866C40.0833 22.866 43.0417 25.9408 43.0417 29.7519C43.0417 33.5629 40.0833 36.6377 36.4167 36.6377ZM36.4167 26.1141C34.5 26.1141 32.9583 27.7164 32.9583 29.7086C32.9583 31.7007 34.5 33.303 36.4167 33.303C38.3333 33.303 39.875 31.7007 39.875 29.7086C39.9167 27.7597 38.3333 26.1141 36.4167 26.1141ZM20.2917 29.7519C20.2917 31.744 18.75 33.3463 16.8333 33.3463C14.9167 33.3463 13.375 31.744 13.375 29.7519C13.375 27.7597 14.9167 26.1574 16.8333 26.1574C18.7083 26.1141 20.2917 27.7597 20.2917 29.7519Z" fill="#838A8D"></path></g><defs><clipPath id="clip0_142_895"><rect width="250" height="55" fill="white"></rect></clipPath></defs></svg>